<?xml version="1.0" encoding="UTF-8"?>
<svg width="225px" height="61px" viewBox="0 0 225 61" version="1.1" xmlns="http://www.w3.org/2000/svg" xmlns:xlink="http://www.w3.org/1999/xlink">
  <g fill="#E3C475" transform="translate(-280.000000, -366.000000)">
    <g transform="translate(177.000000, 366.000000)">
      <g transform="translate(103.000000, 0.000000)">
        <g transform="translate(140.261168, 11.194400)">
          <g transform="translate(0.000000, 27.446100)">
            <path d="M2.458,5.0995 L3.83,1.4635 L5.202,5.0995 L2.458,5.0995 Z M2.996,0.1255 L2.84217094e-14,7.7515 L1.521,7.7515 L2.082,6.2775 L5.58,6.2775 L6.141,7.7515 L7.661,7.7515 L4.666,0.1255 L2.996,0.1255 Z"></path>
            <path d="M14.5918,4.7 C14.5918,5.911 13.9168,6.7 12.6478,6.7 C11.3788,6.7 10.7038,5.911 10.7038,4.7 L10.7038,0.126 L9.3428,0.126 L9.3428,4.733 C9.3428,6.62 10.4408,7.889 12.6478,7.889 C14.8658,7.889 15.9518,6.62 15.9518,4.733 L15.9518,0.126 L14.5918,0.126 L14.5918,4.7 Z"></path>
            <polygon points="17.9424 1.3036 20.2534 1.3036 20.2534 7.7516 21.5894 7.7516 21.5894 1.3036 23.9004 1.3036 23.9004 0.1256 17.9424 0.1256"></polygon>
            <polygon points="31.1963 3.2362 27.2283 3.2362 27.2283 0.1262 25.8903 0.1262 25.8903 7.7522 27.2283 7.7522 27.2283 4.4142 31.1963 4.4142 31.1963 7.7522 32.5333 7.7522 32.5333 0.1262 31.1963 0.1262"></polygon>
            <path d="M38.584,6.7 C37.04,6.7 36.057,5.511 36.057,3.944 C36.057,2.367 37.04,1.189 38.584,1.189 C40.116,1.189 41.11,2.367 41.11,3.944 C41.11,5.511 40.116,6.7 38.584,6.7 M38.584,5.32907052e-15 C36.297,5.32907052e-15 34.685,1.669 34.685,3.944 C34.685,6.22 36.297,7.889 38.584,7.889 C40.859,7.889 42.482,6.22 42.482,3.944 C42.482,1.669 40.859,5.32907052e-15 38.584,5.32907052e-15"></path>
            <path d="M45.961,3.7274 L45.961,1.3034 L47.802,1.3034 C48.556,1.3034 49.105,1.7724 49.105,2.5044 C49.105,3.2474 48.556,3.7274 47.802,3.7274 L45.961,3.7274 Z M50.477,2.5154 C50.477,1.0974 49.482,0.1254 47.973,0.1254 L44.622,0.1254 L44.622,7.7514 L45.961,7.7514 L45.961,4.9054 L47.298,4.9054 L48.979,7.7514 L50.534,7.7514 L48.659,4.7564 C49.585,4.6084 50.477,3.8644 50.477,2.5154 L50.477,2.5154 Z"></path>
            <polygon points="52.6737 7.7519 54.0117 7.7519 54.0117 0.1259 52.6737 0.1259"></polygon>
            <polygon points="56.001 1.3036 58.312 1.3036 58.312 7.7516 59.648 7.7516 59.648 1.3036 61.958 1.3036 61.958 0.1256 56.001 0.1256"></polygon>
            <polygon points="66.7852 3.3846 64.6922 0.1256 63.1602 0.1256 66.1222 4.5846 66.1222 7.7516 67.4592 7.7516 67.4592 4.5846 70.4092 0.1256 68.8772 0.1256"></polygon>
          </g>
          <g transform="translate(0.297400, 13.722200)">
            <polygon points="2.31 7.753 3.648 7.753 3.648 1.304 5.957 1.304 5.957 0.126 1.08002496e-12 0.126 1.08002496e-12 1.304 2.31 1.304"></polygon>
            <polygon points="13.1724 6.5743 9.2854 6.5743 9.2854 4.4483 13.0934 4.4483 13.0934 3.2703 9.2854 3.2703 9.2854 1.3033 13.1724 1.3033 13.1724 0.1263 7.9474 0.1263 7.9474 7.7533 13.1724 7.7533"></polygon>
            <path d="M22.1391,6.1632 L20.9951,5.5922 C20.6291,6.2212 19.8861,6.7002 19.0751,6.7002 C17.5661,6.7002 16.4451,5.5342 16.4451,3.9452 C16.4451,2.3332 17.5661,1.1902 19.0751,1.1902 C19.8861,1.1902 20.6291,1.6592 20.9951,2.2992 L22.1271,1.7042 C21.5671,0.7892 20.6071,0.0002 19.0751,0.0002 C16.8221,0.0002 15.0731,1.5902 15.0731,3.9452 C15.0731,6.2892 16.8221,7.8902 19.0751,7.8902 C20.6071,7.8902 21.5551,7.0782 22.1391,6.1632"></path>
            <polygon points="29.3667 7.753 30.7037 7.753 30.7037 0.126 29.3667 0.126 29.3667 3.236 25.3987 3.236 25.3987 0.126 24.0607 0.126 24.0607 7.753 25.3987 7.753 25.3987 4.414 29.3667 4.414"></polygon>
            <polygon points="34.5239 2.2989 38.5029 7.7529 39.7949 7.7529 39.7949 0.1259 38.4579 0.1259 38.4579 5.4089 34.5589 0.1259 33.1869 0.1259 33.1869 7.7529 34.5239 7.7529"></polygon>
            <path d="M43.3188,3.9454 C43.3188,2.3674 44.3018,1.1904 45.8448,1.1904 C47.3778,1.1904 48.3728,2.3674 48.3728,3.9454 C48.3728,5.5114 47.3778,6.7004 45.8448,6.7004 C44.3018,6.7004 43.3188,5.5114 43.3188,3.9454 M49.7448,3.9454 C49.7448,1.6704 48.1218,0.0004 45.8448,0.0004 C43.5588,0.0004 41.9468,1.6704 41.9468,3.9454 C41.9468,6.2204 43.5588,7.8894 45.8448,7.8894 C48.1218,7.8894 49.7448,6.2204 49.7448,3.9454"></path>
            <polygon points="56.4927 6.5743 53.1317 6.5743 53.1317 0.1263 51.7927 0.1263 51.7927 7.7533 56.4927 7.7533"></polygon>
            <path d="M62.0962,6.7003 C60.5522,6.7003 59.5692,5.5123 59.5692,3.9453 C59.5692,2.3673 60.5522,1.1903 62.0962,1.1903 C63.6272,1.1903 64.6232,2.3673 64.6232,3.9453 C64.6232,5.5123 63.6272,6.7003 62.0962,6.7003 M65.9952,3.9453 C65.9952,1.6703 64.3712,0.0003 62.0962,0.0003 C59.8092,0.0003 58.1972,1.6703 58.1972,3.9453 C58.1972,6.2213 59.8092,7.8893 62.0962,7.8893 C64.3712,7.8893 65.9952,6.2213 65.9952,3.9453"></path>
            <path d="M71.3247,4.837 L73.6107,4.837 L73.6107,6.015 C73.2677,6.346 72.5827,6.7 71.8047,6.7 C70.2967,6.7 69.1757,5.534 69.1757,3.945 C69.1757,2.333 70.2967,1.191 71.8047,1.191 C72.6507,1.191 73.3717,1.635 73.7827,2.208 L74.8697,1.578 C74.2627,0.71 73.2917,-2.13162821e-14 71.8047,-2.13162821e-14 C69.5877,-2.13162821e-14 67.8037,1.544 67.8037,3.945 C67.8037,6.335 69.5877,7.901 71.8047,7.901 C73.1197,7.901 74.1947,7.341 74.9377,6.507 L74.9377,3.66 L71.3247,3.66 L71.3247,4.837 Z"></path>
            <polygon points="82.1196 0.1261 80.0276 3.3851 77.9346 0.1261 76.4026 0.1261 79.3646 4.5861 79.3646 7.7531 80.7026 7.7531 80.7026 4.5861 83.6516 0.1261"></polygon>
          </g>
          <g transform="translate(0.458000, 0.000000)">
            <path d="M4.002,7.901 C5.316,7.901 6.392,7.339 7.135,6.505 L7.135,3.659 L3.522,3.659 L3.522,4.837 L5.809,4.837 L5.809,6.014 C5.465,6.345 4.779,6.7 4.002,6.7 C2.492,6.7 1.372,5.534 1.372,3.944 C1.372,2.332 2.492,1.188 4.002,1.188 C4.848,1.188 5.568,1.635 5.98,2.206 L7.066,1.578 C6.46,0.709 5.488,-2.13162821e-14 4.002,-2.13162821e-14 C1.783,-2.13162821e-14 1.00897068e-12,1.544 1.00897068e-12,3.944 C1.00897068e-12,6.334 1.783,7.901 4.002,7.901"></path>
            <polygon points="14.6133 6.5739 10.7263 6.5739 10.7263 4.4469 14.5333 4.4469 14.5333 3.2689 10.7263 3.2689 10.7263 1.3029 14.6133 1.3029 14.6133 0.1259 9.3883 0.1259 9.3883 7.7519 14.6133 7.7519"></polygon>
            <path d="M20.4121,1.1881 C21.9441,1.1881 22.9381,2.3671 22.9381,3.9441 C22.9381,5.5101 21.9441,6.7001 20.4121,6.7001 C18.8681,6.7001 17.8851,5.5101 17.8851,3.9441 C17.8851,2.3671 18.8681,1.1881 20.4121,1.1881 M20.4121,7.8891 C22.6871,7.8891 24.3101,6.2191 24.3101,3.9441 C24.3101,1.6681 22.6871,0.0001 20.4121,0.0001 C18.1261,0.0001 16.5131,1.6681 16.5131,3.9441 C16.5131,6.2191 18.1261,7.8891 20.4121,7.8891"></path>
            <path d="M27.7891,3.7272 L27.7891,1.3022 L29.6301,1.3022 C30.3841,1.3022 30.9331,1.7722 30.9331,2.5032 C30.9331,3.2472 30.3841,3.7272 29.6301,3.7272 L27.7891,3.7272 Z M32.3051,2.5152 C32.3051,1.0972 31.3101,0.1252 29.8011,0.1252 L26.4501,0.1252 L26.4501,7.7512 L27.7891,7.7512 L27.7891,4.9052 L29.1261,4.9052 L30.8081,7.7512 L32.3621,7.7512 L30.4871,4.7562 C31.4131,4.6082 32.3051,3.8652 32.3051,2.5152 L32.3051,2.5152 Z"></path>
            <path d="M38.1719,7.901 C39.4859,7.901 40.5619,7.339 41.3049,6.505 L41.3049,3.659 L37.6919,3.659 L37.6919,4.837 L39.9789,4.837 L39.9789,6.014 C39.6349,6.345 38.9489,6.7 38.1719,6.7 C36.6619,6.7 35.5419,5.534 35.5419,3.944 C35.5419,2.332 36.6619,1.188 38.1719,1.188 C39.0179,1.188 39.7379,1.635 40.1499,2.206 L41.2359,1.578 C40.6299,0.709 39.6579,-2.13162821e-14 38.1719,-2.13162821e-14 C35.9529,-2.13162821e-14 34.1699,1.544 34.1699,3.944 C34.1699,6.334 35.9529,7.901 38.1719,7.901"></path>
            <polygon points="43.5587 7.752 44.8967 7.752 44.8967 0.126 43.5587 0.126"></polygon>
            <path d="M50.419,1.4635 L51.791,5.0995 L49.047,5.0995 L50.419,1.4635 Z M48.671,6.2765 L52.17,6.2765 L52.73,7.7515 L54.25,7.7515 L51.255,0.1255 L49.585,0.1255 L46.589,7.7515 L48.109,7.7515 L48.671,6.2765 Z"></path>
          </g>
        </g>
        <polygon points="122.046368 46.4089 122.640368 46.4089 122.640368 11.7469 122.046368 11.7369"></polygon>
        <g>
          <path d="M80.4906683,39.6638 C74.8966683,39.6798 70.1336683,35.0108 70.1176683,29.3508 C70.1006683,23.4958 74.6406683,18.6038 80.5606683,18.5878 C86.2846683,18.5708 91.0476683,23.1768 91.0626683,28.8998 C91.0806683,34.8188 86.4746683,39.6468 80.4906683,39.6638 L80.4906683,39.6638 Z M99.0286683,39.0258 L98.9716683,19.1198 L103.330668,19.1068 L103.308668,11.6978 L90.8846683,11.6978 L90.8986683,16.6708 C88.4806683,12.9038 84.5716683,10.8338 80.0836683,10.8478 C69.9356683,10.8758 61.8916683,19.2908 61.9206683,29.3748 C61.9486683,39.1958 69.8446683,47.4358 79.7976683,47.4078 C84.3506683,47.3938 88.4436683,45.6268 90.9696683,41.7808 L90.9836683,46.4648 L103.408668,46.4298 L103.386668,39.0138 L99.0286683,39.0258 Z"></path>
          <path d="M53.2338683,39.029 L53.1768683,19.124 L59.0968683,19.106 L59.0758683,11.692 L53.1568683,11.709 L53.1228683,7.10542736e-15 L45.1868683,0.022 L45.2198683,11.731 L45.2418683,19.147 L45.3078683,42.494 C45.3148683,44.688 47.0978683,46.462 49.2938683,46.456 L59.5648683,46.426 L59.5438683,39.011 L53.2338683,39.029 Z"></path>
          <path d="M18.7660683,39.6843 C12.8460683,39.7013 8.14906833,34.9653 8.13206833,29.0453 C8.11606833,23.2563 12.8510683,18.4933 18.6400683,18.4763 C24.4300683,18.4603 29.2570683,23.1303 29.2740683,28.9193 C29.2900683,34.7753 24.7500683,39.6663 18.7660683,39.6843 L18.7660683,39.6843 Z M40.9340683,11.6983 L29.1590683,11.6983 L29.1740683,16.8213 C26.5600683,12.7953 22.2630683,11.1803 17.5790683,11.1943 C7.95106833,11.2213 -0.0269316684,19.5713 6.83315746e-05,29.1333 C0.0290683316,38.8273 7.72806833,47.0663 17.6160683,47.0383 C22.2990683,47.0243 26.2630683,45.2563 28.7230683,41.2163 L28.7270683,42.5183 C28.7360683,45.7703 28.5470683,47.9823 26.3430683,50.5913 C24.5920683,52.6133 21.7340683,53.7913 19.0010683,53.7993 C15.9440683,53.8083 12.5570683,52.4523 11.1830683,49.5293 L2.01006833,49.5543 C3.85406833,57.0943 11.4100683,60.6523 18.6300683,60.6313 C23.7700683,60.6173 28.5140683,58.9773 32.2110683,55.3233 C36.1670683,51.3433 36.5460683,47.1793 36.5320683,41.8453 L36.4660683,19.1413 L40.9540683,19.1293 L40.9340683,11.6983 Z"></path>
        </g>
      </g>
    </g>
  </g>
</svg>
